<?xml version="1.0" encoding="utf-8" standalone="no"?>
<!DOCTYPE svg PUBLIC "-//W3C//DTD SVG 1.1//EN"
  "http://www.w3.org/Graphics/SVG/1.1/DTD/svg11.dtd">
<svg xmlns:xlink="http://www.w3.org/1999/xlink" width="169.2pt" height="189.175361pt" viewBox="0 0 169.2 189.175361" xmlns="http://www.w3.org/2000/svg" version="1.1">
 <metadata>
  <rdf:RDF xmlns:dc="http://purl.org/dc/elements/1.1/" xmlns:cc="http://creativecommons.org/ns#" xmlns:rdf="http://www.w3.org/1999/02/22-rdf-syntax-ns#">
   <cc:Work>
    <dc:type rdf:resource="http://purl.org/dc/dcmitype/StillImage"/>
    <dc:date>2022-09-30T11:39:07.027378</dc:date>
    <dc:format>image/svg+xml</dc:format>
    <dc:creator>
     <cc:Agent>
      <dc:title>Matplotlib v3.5.1, https://matplotlib.org/</dc:title>
     </cc:Agent>
    </dc:creator>
   </cc:Work>
  </rdf:RDF>
 </metadata>
 <defs>
  <style type="text/css">*{stroke-linejoin: round; stroke-linecap: butt}</style>
 </defs>
 <g id="figure_1">
  <g id="patch_1">
   <path d="M 0 189.175361 
L 169.2 189.175361 
L 169.2 -0 
L 0 -0 
L 0 189.175361 
z
" style="fill: none"/>
  </g>
  <g id="axes_1">
   <g id="patch_2">
    <path d="M 32.713438 44.194709 
L 85.3704 44.194709 
L 85.3704 3.6 
L 32.713438 3.6 
z
" style="fill: #ffffff"/>
   </g>
   <g id="matplotlib.axis_1">
    <g id="xtick_1">
     <g id="line2d_1">
      <defs>
       <path id="m4cca850156" d="M 0 0 
L 0 -2.5 
" style="stroke: #000000; stroke-width: 0.6"/>
      </defs>
      <g>
       <use xlink:href="#m4cca850156" x="32.713438" y="44.194709" style="stroke: #000000; stroke-width: 0.6"/>
      </g>
     </g>
    </g>
    <g id="xtick_2">
     <g id="line2d_2">
      <g>
       <use xlink:href="#m4cca850156" x="59.041919" y="44.194709" style="stroke: #000000; stroke-width: 0.6"/>
      </g>
     </g>
    </g>
    <g id="xtick_3">
     <g id="line2d_3">
      <g>
       <use xlink:href="#m4cca850156" x="85.3704" y="44.194709" style="stroke: #000000; stroke-width: 0.6"/>
      </g>
     </g>
    </g>
   </g>
   <g id="matplotlib.axis_2">
    <g id="ytick_1">
     <g id="line2d_4">
      <defs>
       <path id="mad2a4b6db3" d="M 0 0 
L 2.5 0 
" style="stroke: #000000; stroke-width: 0.6"/>
      </defs>
      <g>
       <use xlink:href="#mad2a4b6db3" x="32.713438" y="41.295087" style="stroke: #000000; stroke-width: 0.6"/>
      </g>
     </g>
     <g id="text_1">
      <!-- 0.0 -->
      <g transform="translate(18.392855 44.062457)scale(0.08 -0.08)">
       <defs>
        <path id="LMSans17-Regular-30" d="M 2758 2075 
C 2758 2441 2752 3122 2490 3648 
C 2227 4153 1805 4288 1504 4288 
C 1069 4288 698 4031 506 3622 
C 301 3193 243 2749 243 2075 
C 243 1612 262 1046 493 551 
C 755 6 1197 -128 1498 -128 
C 1894 -128 2278 83 2496 525 
C 2720 988 2758 1496 2758 2075 
z
M 2272 2145 
C 2272 1547 2272 262 1498 262 
C 1011 262 864 821 819 1008 
C 742 1329 730 1637 730 2145 
C 730 2544 730 2994 851 3347 
C 998 3756 1254 3897 1498 3897 
C 1971 3897 2125 3423 2176 3257 
C 2272 2917 2272 2518 2272 2145 
z
" transform="scale(0.015625)"/>
        <path id="LMSans17-Regular-2e" d="M 1088 0 
L 1088 512 
L 576 512 
L 576 0 
L 1088 0 
z
" transform="scale(0.015625)"/>
       </defs>
       <use xlink:href="#LMSans17-Regular-30" transform="scale(0.996264)"/>
       <use xlink:href="#LMSans17-Regular-2e" transform="translate(46.844004 0)scale(0.996264)"/>
       <use xlink:href="#LMSans17-Regular-30" transform="translate(72.869166 0)scale(0.996264)"/>
      </g>
     </g>
    </g>
    <g id="ytick_2">
     <g id="line2d_5">
      <g>
       <use xlink:href="#mad2a4b6db3" x="32.713438" y="11.610397" style="stroke: #000000; stroke-width: 0.6"/>
      </g>
     </g>
     <g id="text_2">
      <!-- 1.0 -->
      <g transform="translate(18.392855 14.377768)scale(0.08 -0.08)">
       <defs>
        <path id="LMSans17-Regular-31" d="M 2573 0 
L 2573 371 
L 1818 371 
L 1818 4288 
L 1696 4288 
C 1350 3951 947 3903 538 3891 
L 538 3520 
C 723 3526 1024 3539 1325 3673 
L 1325 371 
L 570 371 
L 570 0 
L 2573 0 
z
" transform="scale(0.015625)"/>
       </defs>
       <use xlink:href="#LMSans17-Regular-31" transform="scale(0.996264)"/>
       <use xlink:href="#LMSans17-Regular-2e" transform="translate(46.844004 0)scale(0.996264)"/>
       <use xlink:href="#LMSans17-Regular-30" transform="translate(72.869166 0)scale(0.996264)"/>
      </g>
     </g>
    </g>
    <g id="text_3">
     <!-- $F / \Delta$ -->
     <g transform="translate(12.400327 32.482903)rotate(-90)scale(0.08 -0.08)">
      <defs>
       <path id="LMSans17-Oblique-46" d="M 4019 3999 
L 4109 4416 
L 1504 4416 
L 563 0 
L 1101 0 
L 1530 2041 
L 3347 2041 
L 3430 2432 
L 1613 2432 
L 1952 4006 
L 2733 4006 
C 2810 4006 2886 3999 2963 3999 
L 4019 3999 
z
" transform="scale(0.015625)"/>
       <path id="LMMathItalic12-Regular-3d" d="M 2784 4678 
C 2784 4755 2720 4800 2669 4800 
C 2637 4800 2579 4800 2528 4659 
L 384 -1364 
L 346 -1479 
C 346 -1556 410 -1600 461 -1600 
C 499 -1600 557 -1594 602 -1460 
L 2746 4563 
L 2784 4678 
z
" transform="scale(0.015625)"/>
       <path id="CMSS17-1" d="M 2790 4416 
L 2221 4416 
L 250 0 
L 4762 0 
L 2790 4416 
z
M 1920 2635 
C 2106 3060 2368 3639 2458 3944 
C 2560 3620 2822 3035 3021 2590 
L 3949 505 
L 973 505 
L 1920 2635 
z
" transform="scale(0.015625)"/>
      </defs>
      <use xlink:href="#LMSans17-Oblique-46" transform="scale(0.996264)"/>
      <use xlink:href="#LMMathItalic12-Regular-3d" transform="translate(66.687073 0)scale(0.996264)"/>
      <use xlink:href="#CMSS17-1" transform="translate(115.461991 0)scale(0.996264)"/>
     </g>
    </g>
   </g>
   <g id="line2d_6">
    <path d="M 32.713438 41.295087 
L 33.37165 41.27481 
L 34.029862 41.213991 
L 34.688074 41.112657 
L 35.346286 40.970857 
L 36.004498 40.788659 
L 36.66271 40.56615 
L 37.320922 40.303437 
L 37.979134 40.000648 
L 38.637346 39.657927 
L 39.295558 39.275441 
L 39.95377 38.853377 
L 40.611982 38.391942 
L 41.270194 37.891363 
L 41.928406 37.351887 
L 42.586618 36.773785 
L 43.244831 36.157346 
L 43.903043 35.502884 
L 44.561255 34.810732 
L 45.219467 34.081248 
L 45.877679 33.314813 
L 46.535891 32.51183 
L 47.194103 31.672729 
L 47.852315 30.797962 
L 48.510527 29.888013 
L 49.168739 28.943388 
L 49.826951 27.964625 
L 50.485163 26.952296 
L 51.143375 25.907004 
L 51.801587 24.829395 
L 52.459799 23.72016 
L 53.118011 22.580048 
L 53.776223 21.409886 
L 54.434435 20.210611 
L 55.092647 18.983339 
L 55.750859 17.729512 
L 56.409071 16.451255 
L 57.067283 15.152435 
L 57.725495 13.842708 
L 58.383707 12.695851 
L 59.041919 12.298866 
L 59.700131 12.695851 
L 60.358343 13.842708 
L 61.016555 15.152435 
L 61.674767 16.451255 
L 62.332979 17.729512 
L 62.991191 18.983339 
L 63.649403 20.210611 
L 64.307615 21.409886 
L 64.965827 22.580048 
L 65.624039 23.72016 
L 66.282251 24.829395 
L 66.940463 25.907004 
L 67.598675 26.952296 
L 68.256887 27.964625 
L 68.915099 28.943388 
L 69.573311 29.888013 
L 70.231523 30.797962 
L 70.889736 31.672729 
L 71.547948 32.51183 
L 72.20616 33.314813 
L 72.864372 34.081248 
L 73.522584 34.810732 
L 74.180796 35.502884 
L 74.839008 36.157346 
L 75.49722 36.773785 
L 76.155432 37.351887 
L 76.813644 37.891363 
L 77.471856 38.391942 
L 78.130068 38.853377 
L 78.78828 39.275441 
L 79.446492 39.657927 
L 80.104704 40.000648 
L 80.762916 40.303437 
L 81.421128 40.56615 
L 82.07934 40.788659 
L 82.737552 40.970857 
L 83.395764 41.112657 
L 84.053976 41.213991 
L 84.712188 41.27481 
" clip-path="url(#p24b58337ef)" style="fill: none; stroke: #02ccfe; stroke-width: 0.5; stroke-linecap: square"/>
   </g>
   <g id="patch_3">
    <path d="M 32.713438 44.194709 
L 32.713438 3.6 
" style="fill: none; stroke: #000000; stroke-width: 0.4; stroke-linejoin: miter; stroke-linecap: square"/>
   </g>
   <g id="patch_4">
    <path d="M 85.3704 44.194709 
L 85.3704 3.6 
" style="fill: none; stroke: #000000; stroke-width: 0.4; stroke-linejoin: miter; stroke-linecap: square"/>
   </g>
   <g id="patch_5">
    <path d="M 32.713438 44.194709 
L 85.3704 44.194709 
" style="fill: none; stroke: #000000; stroke-width: 0.4; stroke-linejoin: miter; stroke-linecap: square"/>
   </g>
   <g id="patch_6">
    <path d="M 32.713438 3.6 
L 85.3704 3.6 
" style="fill: none; stroke: #000000; stroke-width: 0.4; stroke-linejoin: miter; stroke-linecap: square"/>
   </g>
   <g id="text_4">
    <g id="patch_7">
     <path d="M 32.693147 13.908214 
L 40.127269 13.908214 
L 40.127269 3.623788 
L 32.693147 3.623788 
z
" style="fill-opacity: 0.1"/>
    </g>
    <!--  $0$ -->
    <g transform="translate(34.293147 10.758529)scale(0.08 -0.08)">
     <use xlink:href="#LMSans17-Regular-30" transform="scale(0.996264)"/>
    </g>
   </g>
  </g>
  <g id="axes_2">
   <g id="patch_8">
    <path d="M 92.035948 44.194709 
L 144.69291 44.194709 
L 144.69291 3.6 
L 92.035948 3.6 
z
" style="fill: #ffffff"/>
   </g>
   <g id="PolyCollection_1">
    <defs>
     <path id="ma9f690993b" d="M 92.035948 -165.572217 
L 92.035948 -165.278006 
L 92.69416 -165.278006 
L 93.352372 -165.278006 
L 94.010584 -165.278006 
L 94.668796 -165.278006 
L 95.327008 -165.278006 
L 95.98522 -165.278006 
L 96.643433 -165.278006 
L 97.301645 -165.278006 
L 97.959857 -165.278006 
L 98.618069 -165.278006 
L 99.276281 -165.278006 
L 99.934493 -165.278006 
L 100.592705 -165.278006 
L 101.250917 -165.278006 
L 101.909129 -165.278006 
L 102.567341 -165.278006 
L 103.225553 -165.278006 
L 103.883765 -165.278006 
L 104.541977 -165.278006 
L 105.200189 -165.278006 
L 105.858401 -165.278006 
L 106.516613 -165.278006 
L 107.174825 -165.278006 
L 107.833037 -165.278006 
L 108.491249 -165.278006 
L 109.149461 -165.278006 
L 109.807673 -165.278006 
L 110.465885 -165.278006 
L 111.124097 -165.278006 
L 111.782309 -165.278006 
L 112.440521 -165.278006 
L 113.098733 -165.278006 
L 113.756945 -165.278006 
L 114.415157 -165.278006 
L 115.073369 -165.278006 
L 115.731581 -165.278006 
L 116.389793 -165.278006 
L 117.048005 -165.278006 
L 117.706217 -165.278006 
L 118.364429 -165.278006 
L 119.022641 -165.278006 
L 119.680853 -165.278006 
L 120.339065 -165.278006 
L 120.997277 -165.278006 
L 121.655489 -165.278006 
L 122.313701 -165.278006 
L 122.971913 -165.278006 
L 123.630125 -165.278006 
L 124.288338 -165.278006 
L 124.94655 -165.278006 
L 125.604762 -165.278006 
L 126.262974 -165.278006 
L 126.921186 -165.278006 
L 127.579398 -165.278006 
L 128.23761 -165.278006 
L 128.895822 -165.278006 
L 129.554034 -165.278006 
L 130.212246 -165.278006 
L 130.870458 -165.278006 
L 131.52867 -165.278006 
L 132.186882 -165.278006 
L 132.845094 -165.278006 
L 133.503306 -165.278006 
L 134.161518 -165.278006 
L 134.81973 -165.278006 
L 135.477942 -165.278006 
L 136.136154 -165.278006 
L 136.794366 -165.278006 
L 137.452578 -165.278006 
L 138.11079 -165.278006 
L 138.769002 -165.278006 
L 139.427214 -165.278006 
L 140.085426 -165.278006 
L 140.743638 -165.278006 
L 141.40185 -165.278006 
L 142.060062 -165.278006 
L 142.718274 -165.278006 
L 143.376486 -165.278006 
L 144.034698 -165.278006 
L 144.034698 -164.983796 
L 144.034698 -164.983796 
L 143.376486 -164.395515 
L 142.718274 -163.807655 
L 142.060062 -163.220498 
L 141.40185 -162.634324 
L 140.743638 -162.049417 
L 140.085426 -161.466061 
L 139.427214 -160.884541 
L 138.769002 -160.305144 
L 138.11079 -159.728161 
L 137.452578 -159.153883 
L 136.794366 -158.582605 
L 136.136154 -158.014625 
L 135.477942 -157.450246 
L 134.81973 -156.889773 
L 134.161518 -156.333516 
L 133.503306 -155.781792 
L 132.845094 -155.234923 
L 132.186882 -154.693236 
L 131.52867 -154.15707 
L 130.870458 -153.626768 
L 130.212246 -153.102688 
L 129.554034 -152.585199 
L 128.895822 -152.074684 
L 128.23761 -151.571547 
L 127.579398 -151.076218 
L 126.921186 -150.58916 
L 126.262974 -150.110881 
L 125.604762 -149.641957 
L 124.94655 -149.183066 
L 124.288338 -148.735048 
L 123.630125 -148.299018 
L 122.971913 -147.87659 
L 122.313701 -147.470357 
L 121.655489 -147.085036 
L 120.997277 -146.730563 
L 120.339065 -146.432203 
L 119.680853 -146.273939 
L 119.022641 -148.637179 
L 118.364429 -159.517773 
L 117.706217 -171.038239 
L 117.048005 -181.918833 
L 116.389793 -184.282073 
L 115.731581 -184.123809 
L 115.073369 -183.82545 
L 114.415157 -183.470976 
L 113.756945 -183.085655 
L 113.098733 -182.679422 
L 112.440521 -182.256994 
L 111.782309 -181.820964 
L 111.124097 -181.372946 
L 110.465885 -180.914055 
L 109.807673 -180.445131 
L 109.149461 -179.966852 
L 108.491249 -179.479794 
L 107.833037 -178.984465 
L 107.174825 -178.481329 
L 106.516613 -177.970814 
L 105.858401 -177.453324 
L 105.200189 -176.929244 
L 104.541977 -176.398942 
L 103.883765 -175.862776 
L 103.225553 -175.32109 
L 102.567341 -174.77422 
L 101.909129 -174.222496 
L 101.250917 -173.66624 
L 100.592705 -173.105766 
L 99.934493 -172.541387 
L 99.276281 -171.973407 
L 98.618069 -171.402129 
L 97.959857 -170.827851 
L 97.301645 -170.250868 
L 96.643433 -169.671471 
L 95.98522 -169.089951 
L 95.327008 -168.506595 
L 94.668796 -167.921688 
L 94.010584 -167.335515 
L 93.352372 -166.748357 
L 92.69416 -166.160497 
L 92.035948 -165.572217 
z
"/>
    </defs>
    <g clip-path="url(#p406bb78229)">
     <use xlink:href="#ma9f690993b" x="0" y="189.175361" style="fill: #02ccfe; fill-opacity: 0.2"/>
    </g>
   </g>
   <g id="matplotlib.axis_3">
    <g id="xtick_4">
     <g id="line2d_7">
      <g>
       <use xlink:href="#m4cca850156" x="92.035948" y="44.194709" style="stroke: #000000; stroke-width: 0.6"/>
      </g>
     </g>
    </g>
    <g id="xtick_5">
     <g id="line2d_8">
      <g>
       <use xlink:href="#m4cca850156" x="118.364429" y="44.194709" style="stroke: #000000; stroke-width: 0.6"/>
      </g>
     </g>
    </g>
    <g id="xtick_6">
     <g id="line2d_9">
      <g>
       <use xlink:href="#m4cca850156" x="144.69291" y="44.194709" style="stroke: #000000; stroke-width: 0.6"/>
      </g>
     </g>
    </g>
   </g>
   <g id="matplotlib.axis_4">
    <g id="ytick_3">
     <g id="line2d_10">
      <defs>
       <path id="mb1b2d8f53a" d="M 0 0 
L -2.5 0 
" style="stroke: #000000; stroke-width: 0.6"/>
      </defs>
      <g>
       <use xlink:href="#mb1b2d8f53a" x="144.69291" y="40.811816" style="stroke: #000000; stroke-width: 0.6"/>
      </g>
     </g>
     <g id="text_5">
      <!-- $-0.5$ -->
      <g transform="translate(148.19291 43.579187)scale(0.08 -0.08)">
       <defs>
        <path id="LMMathSymbols10-Regular-0" d="M 4442 1600 
C 4442 1728 4320 1728 4230 1728 
L 742 1728 
C 653 1728 531 1728 531 1600 
C 531 1472 653 1472 742 1472 
L 4230 1472 
C 4320 1472 4442 1472 4442 1600 
z
" transform="scale(0.015625)"/>
        <path id="LMSans17-Regular-35" d="M 2701 1280 
C 2701 2082 2182 2694 1562 2694 
C 1338 2694 1120 2617 934 2464 
L 934 3814 
L 2502 3814 
L 2502 4224 
L 467 4224 
L 467 1827 
L 896 1827 
C 1011 2101 1248 2304 1555 2304 
C 1843 2304 2163 2043 2163 1293 
C 2163 501 1709 268 1376 268 
C 966 268 589 521 422 870 
L 218 508 
C 512 51 992 -128 1376 -128 
C 2118 -128 2701 508 2701 1280 
z
" transform="scale(0.015625)"/>
       </defs>
       <use xlink:href="#LMMathSymbols10-Regular-0" transform="scale(0.996264)"/>
       <use xlink:href="#LMSans17-Regular-30" transform="translate(77.487468 0)scale(0.996264)"/>
       <use xlink:href="#LMSans17-Regular-2e" transform="translate(124.331471 0)scale(0.996264)"/>
       <use xlink:href="#LMSans17-Regular-35" transform="translate(150.356634 0)scale(0.996264)"/>
      </g>
     </g>
    </g>
    <g id="ytick_4">
     <g id="line2d_11">
      <g>
       <use xlink:href="#mb1b2d8f53a" x="144.69291" y="23.897354" style="stroke: #000000; stroke-width: 0.6"/>
      </g>
     </g>
    </g>
    <g id="ytick_5">
     <g id="line2d_12">
      <g>
       <use xlink:href="#mb1b2d8f53a" x="144.69291" y="6.982892" style="stroke: #000000; stroke-width: 0.6"/>
      </g>
     </g>
     <g id="text_6">
      <!-- $0.5$ -->
      <g transform="translate(148.19291 9.750263)scale(0.08 -0.08)">
       <use xlink:href="#LMSans17-Regular-30" transform="scale(0.996264)"/>
       <use xlink:href="#LMSans17-Regular-2e" transform="translate(46.844004 0)scale(0.996264)"/>
       <use xlink:href="#LMSans17-Regular-35" transform="translate(72.869166 0)scale(0.996264)"/>
      </g>
     </g>
    </g>
    <g id="text_7">
     <!-- $I / I_0$ -->
     <g transform="translate(156.577584 30.27001)rotate(-90)scale(0.08 -0.08)">
      <defs>
       <path id="LMSans17-Oblique-49" d="M 1094 0 
L 2042 4416 
L 1504 4416 
L 557 0 
L 1094 0 
z
" transform="scale(0.015625)"/>
      </defs>
      <use xlink:href="#LMSans17-Oblique-49" transform="scale(0.996264)"/>
      <use xlink:href="#LMMathItalic12-Regular-3d" transform="translate(34.615492 0)scale(0.996264)"/>
      <use xlink:href="#LMSans17-Oblique-49" transform="translate(83.390411 0)scale(0.996264)"/>
      <use xlink:href="#LMSans17-Regular-30" transform="translate(109.173394 -14.943915)scale(0.697382)"/>
     </g>
    </g>
   </g>
   <g id="line2d_13">
    <path d="M 92.035948 23.603144 
L 92.69416 23.014863 
L 93.352372 22.427004 
L 94.010584 21.839846 
L 94.668796 21.253672 
L 95.327008 20.668765 
L 95.98522 20.085409 
L 96.643433 19.503889 
L 97.301645 18.924493 
L 97.959857 18.347509 
L 98.618069 17.773231 
L 99.276281 17.201953 
L 99.934493 16.633974 
L 100.592705 16.069594 
L 101.250917 15.509121 
L 101.909129 14.952864 
L 102.567341 14.40114 
L 103.225553 13.854271 
L 103.883765 13.312585 
L 104.541977 12.776418 
L 105.200189 12.246117 
L 105.858401 11.722037 
L 106.516613 11.204547 
L 107.174825 10.694032 
L 107.833037 10.190895 
L 108.491249 9.695567 
L 109.149461 9.208508 
L 109.807673 8.730229 
L 110.465885 8.261305 
L 111.124097 7.802414 
L 111.782309 7.354396 
L 112.440521 6.918366 
L 113.098733 6.495938 
L 113.756945 6.089706 
L 114.415157 5.704384 
L 115.073369 5.349911 
L 115.731581 5.051551 
L 116.389793 4.893287 
L 117.048005 7.256527 
L 117.706217 18.137121 
L 118.364429 29.657588 
L 119.022641 40.538181 
L 119.680853 42.901422 
L 120.339065 42.743158 
L 120.997277 42.444798 
L 121.655489 42.090325 
L 122.313701 41.705003 
L 122.971913 41.298771 
L 123.630125 40.876343 
L 124.288338 40.440313 
L 124.94655 39.992295 
L 125.604762 39.533404 
L 126.262974 39.06448 
L 126.921186 38.5862 
L 127.579398 38.099142 
L 128.23761 37.603813 
L 128.895822 37.100677 
L 129.554034 36.590162 
L 130.212246 36.072672 
L 130.870458 35.548592 
L 131.52867 35.018291 
L 132.186882 34.482124 
L 132.845094 33.940438 
L 133.503306 33.393568 
L 134.161518 32.841845 
L 134.81973 32.285588 
L 135.477942 31.725115 
L 136.136154 31.160735 
L 136.794366 30.592755 
L 137.452578 30.021478 
L 138.11079 29.4472 
L 138.769002 28.870216 
L 139.427214 28.29082 
L 140.085426 27.7093 
L 140.743638 27.125943 
L 141.40185 26.541036 
L 142.060062 25.954863 
L 142.718274 25.367705 
L 143.376486 24.779846 
L 144.034698 24.191565 
" clip-path="url(#p406bb78229)" style="fill: none; stroke: #02ccfe; stroke-width: 0.5; stroke-linecap: square"/>
   </g>
   <g id="patch_9">
    <path d="M 92.035948 44.194709 
L 92.035948 3.6 
" style="fill: none; stroke: #000000; stroke-width: 0.4; stroke-linejoin: miter; stroke-linecap: square"/>
   </g>
   <g id="patch_10">
    <path d="M 144.69291 44.194709 
L 144.69291 3.6 
" style="fill: none; stroke: #000000; stroke-width: 0.4; stroke-linejoin: miter; stroke-linecap: square"/>
   </g>
   <g id="patch_11">
    <path d="M 92.035948 44.194709 
L 144.69291 44.194709 
" style="fill: none; stroke: #000000; stroke-width: 0.4; stroke-linejoin: miter; stroke-linecap: square"/>
   </g>
   <g id="patch_12">
    <path d="M 92.035948 3.6 
L 144.69291 3.6 
" style="fill: none; stroke: #000000; stroke-width: 0.4; stroke-linejoin: miter; stroke-linecap: square"/>
   </g>
   <g id="text_8">
    <g id="patch_13">
     <path d="M 92.015657 13.908214 
L 99.449779 13.908214 
L 99.449779 3.623788 
L 92.015657 3.623788 
z
" style="fill-opacity: 0.1"/>
    </g>
    <!--  $0$ -->
    <g transform="translate(93.615657 10.758529)scale(0.08 -0.08)">
     <use xlink:href="#LMSans17-Regular-30" transform="scale(0.996264)"/>
    </g>
   </g>
  </g>
  <g id="axes_3">
   <g id="patch_14">
    <path d="M 32.713438 87.793451 
L 85.3704 87.793451 
L 85.3704 47.198742 
L 32.713438 47.198742 
z
" style="fill: #ffffff"/>
   </g>
   <g id="matplotlib.axis_5">
    <g id="xtick_7">
     <g id="line2d_14">
      <g>
       <use xlink:href="#m4cca850156" x="32.713438" y="87.793451" style="stroke: #000000; stroke-width: 0.6"/>
      </g>
     </g>
    </g>
    <g id="xtick_8">
     <g id="line2d_15">
      <g>
       <use xlink:href="#m4cca850156" x="59.041919" y="87.793451" style="stroke: #000000; stroke-width: 0.6"/>
      </g>
     </g>
    </g>
    <g id="xtick_9">
     <g id="line2d_16">
      <g>
       <use xlink:href="#m4cca850156" x="85.3704" y="87.793451" style="stroke: #000000; stroke-width: 0.6"/>
      </g>
     </g>
    </g>
   </g>
   <g id="matplotlib.axis_6">
    <g id="ytick_6">
     <g id="line2d_17">
      <g>
       <use xlink:href="#mad2a4b6db3" x="32.713438" y="84.893829" style="stroke: #000000; stroke-width: 0.6"/>
      </g>
     </g>
     <g id="text_9">
      <!-- 0.0 -->
      <g transform="translate(18.392855 87.661199)scale(0.08 -0.08)">
       <use xlink:href="#LMSans17-Regular-30" transform="scale(0.996264)"/>
       <use xlink:href="#LMSans17-Regular-2e" transform="translate(46.844004 0)scale(0.996264)"/>
       <use xlink:href="#LMSans17-Regular-30" transform="translate(72.869166 0)scale(0.996264)"/>
      </g>
     </g>
    </g>
    <g id="ytick_7">
     <g id="line2d_18">
      <g>
       <use xlink:href="#mad2a4b6db3" x="32.713438" y="62.543491" style="stroke: #000000; stroke-width: 0.6"/>
      </g>
     </g>
     <g id="text_10">
      <!-- 0.2 -->
      <g transform="translate(18.392855 65.310861)scale(0.08 -0.08)">
       <defs>
        <path id="LMSans17-Regular-32" d="M 2701 0 
L 2701 435 
L 1613 435 
C 1536 435 1459 428 1382 428 
L 742 428 
L 742 435 
L 1651 1353 
C 1830 1538 2099 1761 2285 1984 
C 2464 2201 2701 2507 2701 2953 
C 2701 3655 2227 4288 1421 4288 
C 787 4288 422 3891 250 3272 
L 499 2928 
C 640 3508 838 3878 1338 3878 
C 1888 3878 2195 3431 2195 2940 
C 2195 2354 1747 1901 1408 1563 
L 301 409 
L 301 0 
L 2701 0 
z
" transform="scale(0.015625)"/>
       </defs>
       <use xlink:href="#LMSans17-Regular-30" transform="scale(0.996264)"/>
       <use xlink:href="#LMSans17-Regular-2e" transform="translate(46.844004 0)scale(0.996264)"/>
       <use xlink:href="#LMSans17-Regular-32" transform="translate(72.869166 0)scale(0.996264)"/>
      </g>
     </g>
    </g>
    <g id="text_11">
     <!-- $F / \Delta$ -->
     <g transform="translate(12.400327 76.081645)rotate(-90)scale(0.08 -0.08)">
      <use xlink:href="#LMSans17-Oblique-46" transform="scale(0.996264)"/>
      <use xlink:href="#LMMathItalic12-Regular-3d" transform="translate(66.687073 0)scale(0.996264)"/>
      <use xlink:href="#CMSS17-1" transform="translate(115.461991 0)scale(0.996264)"/>
     </g>
    </g>
   </g>
   <g id="line2d_19">
    <path d="M 32.713438 84.893829 
L 33.37165 84.832765 
L 34.029862 84.649605 
L 34.688074 84.344434 
L 35.346286 83.917398 
L 36.004498 83.368702 
L 36.66271 82.698608 
L 37.320922 81.907438 
L 37.979134 80.995572 
L 38.637346 79.963452 
L 39.295558 78.811578 
L 39.95377 77.540511 
L 40.611982 76.150873 
L 41.270194 74.643348 
L 41.928406 73.018684 
L 42.586618 71.27769 
L 43.244831 69.421241 
L 43.903043 67.450278 
L 44.561255 65.365808 
L 45.219467 63.168906 
L 45.877679 60.860717 
L 46.535891 58.465864 
L 47.194103 56.299453 
L 47.852315 55.897608 
L 48.510527 56.761141 
L 49.168739 57.733786 
L 49.826951 58.655521 
L 50.485163 59.52376 
L 51.143375 60.336176 
L 51.801587 61.090683 
L 52.459799 61.785415 
L 53.118011 62.418713 
L 53.776223 62.989109 
L 54.434435 63.495315 
L 55.092647 63.936218 
L 55.750859 64.310864 
L 56.409071 64.618459 
L 57.067283 64.85836 
L 57.725495 65.030069 
L 58.383707 65.133235 
L 59.041919 65.167647 
L 59.700131 65.133235 
L 60.358343 65.030069 
L 61.016555 64.85836 
L 61.674767 64.618459 
L 62.332979 64.310864 
L 62.991191 63.936218 
L 63.649403 63.495315 
L 64.307615 62.989109 
L 64.965827 62.418713 
L 65.624039 61.785415 
L 66.282251 61.090683 
L 66.940463 60.336176 
L 67.598675 59.52376 
L 68.256887 58.655521 
L 68.915099 57.733786 
L 69.573311 56.761141 
L 70.231523 55.897608 
L 70.889736 56.299453 
L 71.547948 58.465864 
L 72.20616 60.860717 
L 72.864372 63.168906 
L 73.522584 65.365808 
L 74.180796 67.450278 
L 74.839008 69.421241 
L 75.49722 71.27769 
L 76.155432 73.018684 
L 76.813644 74.643348 
L 77.471856 76.150873 
L 78.130068 77.540511 
L 78.78828 78.811578 
L 79.446492 79.963452 
L 80.104704 80.995572 
L 80.762916 81.907438 
L 81.421128 82.698608 
L 82.07934 83.368702 
L 82.737552 83.917398 
L 83.395764 84.344434 
L 84.053976 84.649605 
L 84.712188 84.832765 
" clip-path="url(#pbd43171ff8)" style="fill: none; stroke: #030aa7; stroke-width: 0.5; stroke-linecap: square"/>
   </g>
   <g id="patch_15">
    <path d="M 32.713438 87.793451 
L 32.713438 47.198742 
" style="fill: none; stroke: #000000; stroke-width: 0.4; stroke-linejoin: miter; stroke-linecap: square"/>
   </g>
   <g id="patch_16">
    <path d="M 85.3704 87.793451 
L 85.3704 47.198742 
" style="fill: none; stroke: #000000; stroke-width: 0.4; stroke-linejoin: miter; stroke-linecap: square"/>
   </g>
   <g id="patch_17">
    <path d="M 32.713438 87.793451 
L 85.3704 87.793451 
" style="fill: none; stroke: #000000; stroke-width: 0.4; stroke-linejoin: miter; stroke-linecap: square"/>
   </g>
   <g id="patch_18">
    <path d="M 32.713438 47.198742 
L 85.3704 47.198742 
" style="fill: none; stroke: #000000; stroke-width: 0.4; stroke-linejoin: miter; stroke-linecap: square"/>
   </g>
   <g id="text_12">
    <g id="patch_19">
     <path d="M 32.693147 57.506956 
L 42.313513 57.506956 
L 42.313513 47.22253 
L 32.693147 47.22253 
z
" style="fill-opacity: 0.1"/>
    </g>
    <!--  $0'$ -->
    <g transform="translate(34.293147 54.357271)scale(0.08 -0.08)">
     <defs>
      <path id="LMMathSymbols10-Regular-30" d="M 1632 3076 
C 1677 3171 1677 3228 1677 3253 
C 1677 3444 1498 3584 1318 3584 
C 1062 3584 1005 3374 979 3292 
L 205 523 
C 198 497 186 466 186 434 
C 186 364 352 320 403 320 
C 403 320 448 320 486 408 
L 1632 3076 
z
" transform="scale(0.015625)"/>
     </defs>
     <use xlink:href="#LMSans17-Regular-30" transform="scale(0.996264)"/>
     <use xlink:href="#LMMathSymbols10-Regular-30" transform="translate(46.844004 36.153639)scale(0.697382)"/>
    </g>
   </g>
  </g>
  <g id="axes_4">
   <g id="patch_20">
    <path d="M 92.035948 87.793451 
L 144.69291 87.793451 
L 144.69291 47.198742 
L 92.035948 47.198742 
z
" style="fill: #ffffff"/>
   </g>
   <g id="PolyCollection_2">
    <defs>
     <path id="m733862cdc2" d="M 92.035948 -121.973459 
L 92.035948 -121.679264 
L 92.69416 -121.679264 
L 93.352372 -121.679264 
L 94.010584 -121.679264 
L 94.668796 -121.679264 
L 95.327008 -121.679264 
L 95.98522 -121.679264 
L 96.643433 -121.679264 
L 97.301645 -121.679264 
L 97.959857 -121.679264 
L 98.618069 -121.679264 
L 99.276281 -121.679264 
L 99.934493 -121.679264 
L 100.592705 -121.679264 
L 101.250917 -121.679264 
L 101.909129 -121.679264 
L 102.567341 -121.679264 
L 103.225553 -121.679264 
L 103.883765 -121.679264 
L 104.541977 -121.679264 
L 105.200189 -121.679264 
L 105.858401 -121.679264 
L 106.516613 -121.679264 
L 107.174825 -121.679264 
L 107.833037 -121.679264 
L 108.491249 -121.679264 
L 109.149461 -121.679264 
L 109.807673 -121.679264 
L 110.465885 -121.679264 
L 111.124097 -121.679264 
L 111.782309 -121.679264 
L 112.440521 -121.679264 
L 113.098733 -121.679264 
L 113.756945 -121.679264 
L 114.415157 -121.679264 
L 115.073369 -121.679264 
L 115.731581 -121.679264 
L 116.389793 -121.679264 
L 117.048005 -121.679264 
L 117.706217 -121.679264 
L 118.364429 -121.679264 
L 119.022641 -121.679264 
L 119.680853 -121.679264 
L 120.339065 -121.679264 
L 120.997277 -121.679264 
L 121.655489 -121.679264 
L 122.313701 -121.679264 
L 122.971913 -121.679264 
L 123.630125 -121.679264 
L 124.288338 -121.679264 
L 124.94655 -121.679264 
L 125.604762 -121.679264 
L 126.262974 -121.679264 
L 126.921186 -121.679264 
L 127.579398 -121.679264 
L 128.23761 -121.679264 
L 128.895822 -121.679264 
L 129.554034 -121.679264 
L 130.212246 -121.679264 
L 130.870458 -121.679264 
L 131.52867 -121.679264 
L 132.186882 -121.679264 
L 132.845094 -121.679264 
L 133.503306 -121.679264 
L 134.161518 -121.679264 
L 134.81973 -121.679264 
L 135.477942 -121.679264 
L 136.136154 -121.679264 
L 136.794366 -121.679264 
L 137.452578 -121.679264 
L 138.11079 -121.679264 
L 138.769002 -121.679264 
L 139.427214 -121.679264 
L 140.085426 -121.679264 
L 140.743638 -121.679264 
L 141.40185 -121.679264 
L 142.060062 -121.679264 
L 142.718274 -121.679264 
L 143.376486 -121.679264 
L 144.034698 -121.679264 
L 144.034698 -121.38507 
L 144.034698 -121.38507 
L 143.376486 -120.796821 
L 142.718274 -120.208993 
L 142.060062 -119.621866 
L 141.40185 -119.035723 
L 140.743638 -118.450845 
L 140.085426 -117.867517 
L 139.427214 -117.286024 
L 138.769002 -116.706654 
L 138.11079 -116.129695 
L 137.452578 -115.555439 
L 136.794366 -114.984182 
L 136.136154 -114.416221 
L 135.477942 -113.851858 
L 134.81973 -113.291399 
L 134.161518 -112.735154 
L 133.503306 -112.18344 
L 132.845094 -111.636578 
L 132.186882 -111.094896 
L 131.52867 -110.558732 
L 130.870458 -110.141197 
L 130.212246 -111.241798 
L 129.554034 -119.743232 
L 128.895822 -125.839646 
L 128.23761 -126.365331 
L 127.579398 -126.120055 
L 126.921186 -125.862317 
L 126.262974 -125.593371 
L 125.604762 -125.314373 
L 124.94655 -125.026388 
L 124.288338 -124.730405 
L 123.630125 -124.427351 
L 122.971913 -124.118098 
L 122.313701 -123.803471 
L 121.655489 -123.484258 
L 120.997277 -123.161215 
L 120.339065 -122.835071 
L 119.680853 -122.506535 
L 119.022641 -122.176303 
L 118.364429 -121.845056 
L 117.706217 -121.513472 
L 117.048005 -121.182226 
L 116.389793 -120.851993 
L 115.731581 -120.523458 
L 115.073369 -120.197314 
L 114.415157 -119.87427 
L 113.756945 -119.555057 
L 113.098733 -119.24043 
L 112.440521 -118.931177 
L 111.782309 -118.628123 
L 111.124097 -118.332141 
L 110.465885 -118.044155 
L 109.807673 -117.765157 
L 109.149461 -117.496212 
L 108.491249 -117.238473 
L 107.833037 -116.993197 
L 107.174825 -117.518883 
L 106.516613 -123.615296 
L 105.858401 -132.11673 
L 105.200189 -133.217331 
L 104.541977 -132.799796 
L 103.883765 -132.263632 
L 103.225553 -131.721951 
L 102.567341 -131.175089 
L 101.909129 -130.623374 
L 101.250917 -130.06713 
L 100.592705 -129.506671 
L 99.934493 -128.942308 
L 99.276281 -128.374347 
L 98.618069 -127.803089 
L 97.959857 -127.228834 
L 97.301645 -126.651875 
L 96.643433 -126.072504 
L 95.98522 -125.491011 
L 95.327008 -124.907683 
L 94.668796 -124.322806 
L 94.010584 -123.736662 
L 93.352372 -123.149536 
L 92.69416 -122.561708 
L 92.035948 -121.973459 
z
"/>
    </defs>
    <g clip-path="url(#pccbdecbea4)">
     <use xlink:href="#m733862cdc2" x="0" y="189.175361" style="fill: #030aa7; fill-opacity: 0.2"/>
    </g>
   </g>
   <g id="matplotlib.axis_7">
    <g id="xtick_10">
     <g id="line2d_20">
      <g>
       <use xlink:href="#m4cca850156" x="92.035948" y="87.793451" style="stroke: #000000; stroke-width: 0.6"/>
      </g>
     </g>
    </g>
    <g id="xtick_11">
     <g id="line2d_21">
      <g>
       <use xlink:href="#m4cca850156" x="118.364429" y="87.793451" style="stroke: #000000; stroke-width: 0.6"/>
      </g>
     </g>
    </g>
    <g id="xtick_12">
     <g id="line2d_22">
      <g>
       <use xlink:href="#m4cca850156" x="144.69291" y="87.793451" style="stroke: #000000; stroke-width: 0.6"/>
      </g>
     </g>
    </g>
   </g>
   <g id="matplotlib.axis_8">
    <g id="ytick_8">
     <g id="line2d_23">
      <g>
       <use xlink:href="#mb1b2d8f53a" x="144.69291" y="84.410558" style="stroke: #000000; stroke-width: 0.6"/>
      </g>
     </g>
     <g id="text_13">
      <!-- $-0.5$ -->
      <g transform="translate(148.19291 87.177929)scale(0.08 -0.08)">
       <use xlink:href="#LMMathSymbols10-Regular-0" transform="scale(0.996264)"/>
       <use xlink:href="#LMSans17-Regular-30" transform="translate(77.487468 0)scale(0.996264)"/>
       <use xlink:href="#LMSans17-Regular-2e" transform="translate(124.331471 0)scale(0.996264)"/>
       <use xlink:href="#LMSans17-Regular-35" transform="translate(150.356634 0)scale(0.996264)"/>
      </g>
     </g>
    </g>
    <g id="ytick_9">
     <g id="line2d_24">
      <g>
       <use xlink:href="#mb1b2d8f53a" x="144.69291" y="67.496096" style="stroke: #000000; stroke-width: 0.6"/>
      </g>
     </g>
    </g>
    <g id="ytick_10">
     <g id="line2d_25">
      <g>
       <use xlink:href="#mb1b2d8f53a" x="144.69291" y="50.581634" style="stroke: #000000; stroke-width: 0.6"/>
      </g>
     </g>
     <g id="text_14">
      <!-- $0.5$ -->
      <g transform="translate(148.19291 53.349005)scale(0.08 -0.08)">
       <use xlink:href="#LMSans17-Regular-30" transform="scale(0.996264)"/>
       <use xlink:href="#LMSans17-Regular-2e" transform="translate(46.844004 0)scale(0.996264)"/>
       <use xlink:href="#LMSans17-Regular-35" transform="translate(72.869166 0)scale(0.996264)"/>
      </g>
     </g>
    </g>
    <g id="text_15">
     <!-- $I / I_0$ -->
     <g transform="translate(156.577584 73.868752)rotate(-90)scale(0.08 -0.08)">
      <use xlink:href="#LMSans17-Oblique-49" transform="scale(0.996264)"/>
      <use xlink:href="#LMMathItalic12-Regular-3d" transform="translate(34.615492 0)scale(0.996264)"/>
      <use xlink:href="#LMSans17-Oblique-49" transform="translate(83.390411 0)scale(0.996264)"/>
      <use xlink:href="#LMSans17-Regular-30" transform="translate(109.173394 -14.943915)scale(0.697382)"/>
     </g>
    </g>
   </g>
   <g id="line2d_26">
    <path d="M 92.035948 67.201902 
L 92.69416 66.613653 
L 93.352372 66.025825 
L 94.010584 65.438698 
L 94.668796 64.852555 
L 95.327008 64.267677 
L 95.98522 63.68435 
L 96.643433 63.102857 
L 97.301645 62.523486 
L 97.959857 61.946527 
L 98.618069 61.372271 
L 99.276281 60.801014 
L 99.934493 60.233053 
L 100.592705 59.66869 
L 101.250917 59.108231 
L 101.909129 58.551986 
L 102.567341 58.000272 
L 103.225553 57.45341 
L 103.883765 56.911728 
L 104.541977 56.375564 
L 105.200189 55.958029 
L 105.858401 57.05863 
L 106.516613 65.560064 
L 107.174825 71.656478 
L 107.833037 72.182163 
L 108.491249 71.936888 
L 109.149461 71.679149 
L 109.807673 71.410204 
L 110.465885 71.131205 
L 111.124097 70.84322 
L 111.782309 70.547237 
L 112.440521 70.244183 
L 113.098733 69.93493 
L 113.756945 69.620303 
L 114.415157 69.30109 
L 115.073369 68.978047 
L 115.731581 68.651903 
L 116.389793 68.323368 
L 117.048005 67.993135 
L 117.706217 67.661888 
L 118.364429 67.330304 
L 119.022641 66.999058 
L 119.680853 66.668825 
L 120.339065 66.34029 
L 120.997277 66.014146 
L 121.655489 65.691102 
L 122.313701 65.37189 
L 122.971913 65.057263 
L 123.630125 64.748009 
L 124.288338 64.444956 
L 124.94655 64.148973 
L 125.604762 63.860987 
L 126.262974 63.581989 
L 126.921186 63.313044 
L 127.579398 63.055305 
L 128.23761 62.810029 
L 128.895822 63.335715 
L 129.554034 69.432129 
L 130.212246 77.933562 
L 130.870458 79.034163 
L 131.52867 78.616629 
L 132.186882 78.080464 
L 132.845094 77.538783 
L 133.503306 76.991921 
L 134.161518 76.440206 
L 134.81973 75.883962 
L 135.477942 75.323503 
L 136.136154 74.75914 
L 136.794366 74.191179 
L 137.452578 73.619922 
L 138.11079 73.045666 
L 138.769002 72.468707 
L 139.427214 71.889336 
L 140.085426 71.307843 
L 140.743638 70.724515 
L 141.40185 70.139638 
L 142.060062 69.553494 
L 142.718274 68.966368 
L 143.376486 68.37854 
L 144.034698 67.790291 
" clip-path="url(#pccbdecbea4)" style="fill: none; stroke: #030aa7; stroke-width: 0.5; stroke-linecap: square"/>
   </g>
   <g id="patch_21">
    <path d="M 92.035948 87.793451 
L 92.035948 47.198742 
" style="fill: none; stroke: #000000; stroke-width: 0.4; stroke-linejoin: miter; stroke-linecap: square"/>
   </g>
   <g id="patch_22">
    <path d="M 144.69291 87.793451 
L 144.69291 47.198742 
" style="fill: none; stroke: #000000; stroke-width: 0.4; stroke-linejoin: miter; stroke-linecap: square"/>
   </g>
   <g id="patch_23">
    <path d="M 92.035948 87.793451 
L 144.69291 87.793451 
" style="fill: none; stroke: #000000; stroke-width: 0.4; stroke-linejoin: miter; stroke-linecap: square"/>
   </g>
   <g id="patch_24">
    <path d="M 92.035948 47.198742 
L 144.69291 47.198742 
" style="fill: none; stroke: #000000; stroke-width: 0.4; stroke-linejoin: miter; stroke-linecap: square"/>
   </g>
   <g id="text_16">
    <g id="patch_25">
     <path d="M 92.015657 57.506956 
L 101.636024 57.506956 
L 101.636024 47.22253 
L 92.015657 47.22253 
z
" style="fill-opacity: 0.1"/>
    </g>
    <!--  $0'$ -->
    <g transform="translate(93.615657 54.357271)scale(0.08 -0.08)">
     <use xlink:href="#LMSans17-Regular-30" transform="scale(0.996264)"/>
     <use xlink:href="#LMMathSymbols10-Regular-30" transform="translate(46.844004 36.153639)scale(0.697382)"/>
    </g>
   </g>
  </g>
  <g id="axes_5">
   <g id="patch_26">
    <path d="M 32.713438 131.392193 
L 85.3704 131.392193 
L 85.3704 90.797484 
L 32.713438 90.797484 
z
" style="fill: #ffffff"/>
   </g>
   <g id="matplotlib.axis_9">
    <g id="xtick_13">
     <g id="line2d_27">
      <g>
       <use xlink:href="#m4cca850156" x="32.713438" y="131.392193" style="stroke: #000000; stroke-width: 0.6"/>
      </g>
     </g>
    </g>
    <g id="xtick_14">
     <g id="line2d_28">
      <g>
       <use xlink:href="#m4cca850156" x="59.041919" y="131.392193" style="stroke: #000000; stroke-width: 0.6"/>
      </g>
     </g>
    </g>
    <g id="xtick_15">
     <g id="line2d_29">
      <g>
       <use xlink:href="#m4cca850156" x="85.3704" y="131.392193" style="stroke: #000000; stroke-width: 0.6"/>
      </g>
     </g>
    </g>
   </g>
   <g id="matplotlib.axis_10">
    <g id="ytick_11">
     <g id="line2d_30">
      <g>
       <use xlink:href="#mad2a4b6db3" x="32.713438" y="124.496198" style="stroke: #000000; stroke-width: 0.6"/>
      </g>
     </g>
     <g id="text_17">
      <!-- -0.2 -->
      <g transform="translate(15.570112 127.263569)scale(0.08 -0.08)">
       <defs>
        <path id="LMSans17-Regular-2d" d="M 1664 1216 
L 1664 1587 
L 64 1587 
L 64 1216 
L 1664 1216 
z
" transform="scale(0.015625)"/>
       </defs>
       <use xlink:href="#LMSans17-Regular-2d" transform="scale(0.996264)"/>
       <use xlink:href="#LMSans17-Regular-30" transform="translate(31.229402 0)scale(0.996264)"/>
       <use xlink:href="#LMSans17-Regular-2e" transform="translate(78.073405 0)scale(0.996264)"/>
       <use xlink:href="#LMSans17-Regular-32" transform="translate(104.098568 0)scale(0.996264)"/>
      </g>
     </g>
    </g>
    <g id="ytick_12">
     <g id="line2d_31">
      <g>
       <use xlink:href="#mad2a4b6db3" x="32.713438" y="104.039845" style="stroke: #000000; stroke-width: 0.6"/>
      </g>
     </g>
     <g id="text_18">
      <!-- 0.0 -->
      <g transform="translate(18.392855 106.807215)scale(0.08 -0.08)">
       <use xlink:href="#LMSans17-Regular-30" transform="scale(0.996264)"/>
       <use xlink:href="#LMSans17-Regular-2e" transform="translate(46.844004 0)scale(0.996264)"/>
       <use xlink:href="#LMSans17-Regular-30" transform="translate(72.869166 0)scale(0.996264)"/>
      </g>
     </g>
    </g>
    <g id="text_19">
     <!-- $F / \Delta$ -->
     <g transform="translate(9.577584 119.680387)rotate(-90)scale(0.08 -0.08)">
      <use xlink:href="#LMSans17-Oblique-46" transform="scale(0.996264)"/>
      <use xlink:href="#LMMathItalic12-Regular-3d" transform="translate(66.687073 0)scale(0.996264)"/>
      <use xlink:href="#CMSS17-1" transform="translate(115.461991 0)scale(0.996264)"/>
     </g>
    </g>
   </g>
   <g id="line2d_32">
    <path d="M 32.713438 104.039845 
L 33.37165 103.96994 
L 34.029862 103.760258 
L 34.688074 103.4109 
L 35.346286 102.922033 
L 36.004498 102.293895 
L 36.66271 101.526786 
L 37.320922 100.684485 
L 37.979134 99.85229 
L 38.637346 99.49635 
L 39.295558 100.098599 
L 39.95377 101.268206 
L 40.611982 102.655052 
L 41.270194 104.070286 
L 41.928406 105.502285 
L 42.586618 106.940555 
L 43.244831 108.375651 
L 43.903043 109.799088 
L 44.561255 111.203245 
L 45.219467 112.58128 
L 45.877679 113.927047 
L 46.535891 115.235016 
L 47.194103 116.500213 
L 47.852315 117.718156 
L 48.510527 118.884809 
L 49.168739 119.996531 
L 49.826951 121.050042 
L 50.485163 122.042389 
L 51.143375 122.970917 
L 51.801587 123.833245 
L 52.459799 124.627244 
L 53.118011 125.35102 
L 53.776223 126.002898 
L 54.434435 126.581411 
L 55.092647 127.085287 
L 55.750859 127.513439 
L 56.409071 127.864961 
L 57.067283 128.139119 
L 57.725495 128.335348 
L 58.383707 128.453245 
L 59.041919 128.492571 
L 59.700131 128.453245 
L 60.358343 128.335348 
L 61.016555 128.139119 
L 61.674767 127.864961 
L 62.332979 127.513439 
L 62.991191 127.085287 
L 63.649403 126.581411 
L 64.307615 126.002898 
L 64.965827 125.35102 
L 65.624039 124.627244 
L 66.282251 123.833245 
L 66.940463 122.970917 
L 67.598675 122.042389 
L 68.256887 121.050042 
L 68.915099 119.996531 
L 69.573311 118.884809 
L 70.231523 117.718156 
L 70.889736 116.500213 
L 71.547948 115.235016 
L 72.20616 113.927047 
L 72.864372 112.58128 
L 73.522584 111.203245 
L 74.180796 109.799088 
L 74.839008 108.375651 
L 75.49722 106.940555 
L 76.155432 105.502285 
L 76.813644 104.070286 
L 77.471856 102.655052 
L 78.130068 101.268206 
L 78.78828 100.098599 
L 79.446492 99.49635 
L 80.104704 99.85229 
L 80.762916 100.684485 
L 81.421128 101.526786 
L 82.07934 102.293895 
L 82.737552 102.922033 
L 83.395764 103.4109 
L 84.053976 103.760258 
L 84.712188 103.96994 
" clip-path="url(#pa147662fe3)" style="fill: none; stroke: #be03fd; stroke-width: 0.5; stroke-linecap: square"/>
   </g>
   <g id="patch_27">
    <path d="M 32.713438 131.392193 
L 32.713438 90.797484 
" style="fill: none; stroke: #000000; stroke-width: 0.4; stroke-linejoin: miter; stroke-linecap: square"/>
   </g>
   <g id="patch_28">
    <path d="M 85.3704 131.392193 
L 85.3704 90.797484 
" style="fill: none; stroke: #000000; stroke-width: 0.4; stroke-linejoin: miter; stroke-linecap: square"/>
   </g>
   <g id="patch_29">
    <path d="M 32.713438 131.392193 
L 85.3704 131.392193 
" style="fill: none; stroke: #000000; stroke-width: 0.4; stroke-linejoin: miter; stroke-linecap: square"/>
   </g>
   <g id="patch_30">
    <path d="M 32.713438 90.797484 
L 85.3704 90.797484 
" style="fill: none; stroke: #000000; stroke-width: 0.4; stroke-linejoin: miter; stroke-linecap: square"/>
   </g>
   <g id="text_20">
    <g id="patch_31">
     <path d="M 32.693147 101.105698 
L 43.228205 101.105698 
L 43.228205 90.821272 
L 32.693147 90.821272 
z
" style="fill-opacity: 0.1"/>
    </g>
    <!--  $\pi'$ -->
    <g transform="translate(34.293147 97.956013)scale(0.08 -0.08)">
     <defs>
      <path id="LMMathItalic12-Regular-19" d="M 3539 2611 
C 3539 2752 3418 2752 3302 2752 
L 1197 2752 
C 1050 2752 832 2752 538 2438 
C 371 2253 166 1914 166 1876 
C 166 1838 198 1825 237 1825 
C 282 1825 288 1844 320 1883 
C 653 2406 986 2406 1146 2406 
L 1510 2406 
C 1370 1927 1210 1372 685 255 
C 634 153 634 140 634 101 
C 634 -33 749 -64 806 -64 
C 992 -64 1043 101 1120 370 
C 1222 695 1222 708 1286 963 
L 1658 2406 
L 2381 2406 
C 2208 1691 2099 1225 2099 714 
C 2099 625 2099 -64 2362 -64 
C 2496 -64 2611 57 2611 165 
C 2611 197 2611 210 2566 306 
C 2394 746 2394 1295 2394 1340 
C 2394 1378 2394 1831 2528 2406 
L 3245 2406 
C 3328 2406 3539 2406 3539 2611 
z
" transform="scale(0.015625)"/>
     </defs>
     <use xlink:href="#LMMathItalic12-Regular-19" transform="scale(0.996264)"/>
     <use xlink:href="#LMMathSymbols10-Regular-30" transform="translate(58.910601 36.153639)scale(0.697382)"/>
    </g>
   </g>
  </g>
  <g id="axes_6">
   <g id="patch_32">
    <path d="M 92.035948 131.392193 
L 144.69291 131.392193 
L 144.69291 90.797484 
L 92.035948 90.797484 
z
" style="fill: #ffffff"/>
   </g>
   <g id="PolyCollection_3">
    <defs>
     <path id="mc23933988d" d="M 92.035948 -78.374903 
L 92.035948 -78.080522 
L 92.69416 -78.080522 
L 93.352372 -78.080522 
L 94.010584 -78.080522 
L 94.668796 -78.080522 
L 95.327008 -78.080522 
L 95.98522 -78.080522 
L 96.643433 -78.080522 
L 97.301645 -78.080522 
L 97.959857 -78.080522 
L 98.618069 -78.080522 
L 99.276281 -78.080522 
L 99.934493 -78.080522 
L 100.592705 -78.080522 
L 101.250917 -78.080522 
L 101.909129 -78.080522 
L 102.567341 -78.080522 
L 103.225553 -78.080522 
L 103.883765 -78.080522 
L 104.541977 -78.080522 
L 105.200189 -78.080522 
L 105.858401 -78.080522 
L 106.516613 -78.080522 
L 107.174825 -78.080522 
L 107.833037 -78.080522 
L 108.491249 -78.080522 
L 109.149461 -78.080522 
L 109.807673 -78.080522 
L 110.465885 -78.080522 
L 111.124097 -78.080522 
L 111.782309 -78.080522 
L 112.440521 -78.080522 
L 113.098733 -78.080522 
L 113.756945 -78.080522 
L 114.415157 -78.080522 
L 115.073369 -78.080522 
L 115.731581 -78.080522 
L 116.389793 -78.080522 
L 117.048005 -78.080522 
L 117.706217 -78.080522 
L 118.364429 -78.080522 
L 119.022641 -78.080522 
L 119.680853 -78.080522 
L 120.339065 -78.080522 
L 120.997277 -78.080522 
L 121.655489 -78.080522 
L 122.313701 -78.080522 
L 122.971913 -78.080522 
L 123.630125 -78.080522 
L 124.288338 -78.080522 
L 124.94655 -78.080522 
L 125.604762 -78.080522 
L 126.262974 -78.080522 
L 126.921186 -78.080522 
L 127.579398 -78.080522 
L 128.23761 -78.080522 
L 128.895822 -78.080522 
L 129.554034 -78.080522 
L 130.212246 -78.080522 
L 130.870458 -78.080522 
L 131.52867 -78.080522 
L 132.186882 -78.080522 
L 132.845094 -78.080522 
L 133.503306 -78.080522 
L 134.161518 -78.080522 
L 134.81973 -78.080522 
L 135.477942 -78.080522 
L 136.136154 -78.080522 
L 136.794366 -78.080522 
L 137.452578 -78.080522 
L 138.11079 -78.080522 
L 138.769002 -78.080522 
L 139.427214 -78.080522 
L 140.085426 -78.080522 
L 140.743638 -78.080522 
L 141.40185 -78.080522 
L 142.060062 -78.080522 
L 142.718274 -78.080522 
L 143.376486 -78.080522 
L 144.034698 -78.080522 
L 144.034698 -77.786141 
L 144.034698 -77.786141 
L 143.376486 -77.197521 
L 142.718274 -76.609325 
L 142.060062 -76.021837 
L 141.40185 -75.435339 
L 140.743638 -74.850118 
L 140.085426 -74.533473 
L 139.427214 -74.576028 
L 138.769002 -76.581607 
L 138.11079 -80.616679 
L 137.452578 -83.005906 
L 136.794366 -83.920731 
L 136.136154 -84.040277 
L 135.477942 -84.110876 
L 134.81973 -84.137284 
L 134.161518 -84.123918 
L 133.503306 -84.074818 
L 132.845094 -83.99363 
L 132.186882 -83.883628 
L 131.52867 -83.747738 
L 130.870458 -83.588568 
L 130.212246 -83.408448 
L 129.554034 -83.209458 
L 128.895822 -82.993464 
L 128.23761 -82.762142 
L 127.579398 -82.517009 
L 126.921186 -82.25944 
L 126.262974 -81.990689 
L 125.604762 -81.71191 
L 124.94655 -81.424166 
L 124.288338 -81.128446 
L 123.630125 -80.825675 
L 122.971913 -80.516723 
L 122.313701 -80.202414 
L 121.655489 -79.883532 
L 120.997277 -79.560833 
L 120.339065 -79.235043 
L 119.680853 -78.906869 
L 119.022641 -78.577004 
L 118.364429 -78.246128 
L 117.706217 -77.914916 
L 117.048005 -77.58404 
L 116.389793 -77.254175 
L 115.731581 -76.926002 
L 115.073369 -76.600212 
L 114.415157 -76.277512 
L 113.756945 -75.958631 
L 113.098733 -75.644321 
L 112.440521 -75.335369 
L 111.782309 -75.032598 
L 111.124097 -74.736879 
L 110.465885 -74.449135 
L 109.807673 -74.170356 
L 109.149461 -73.901605 
L 108.491249 -73.644035 
L 107.833037 -73.398902 
L 107.174825 -73.167581 
L 106.516613 -72.951586 
L 105.858401 -72.752597 
L 105.200189 -72.572476 
L 104.541977 -72.413307 
L 103.883765 -72.277416 
L 103.225553 -72.167414 
L 102.567341 -72.086227 
L 101.909129 -72.037126 
L 101.250917 -72.023761 
L 100.592705 -72.050168 
L 99.934493 -72.120768 
L 99.276281 -72.240314 
L 98.618069 -73.155138 
L 97.959857 -75.544366 
L 97.301645 -79.579437 
L 96.643433 -81.585016 
L 95.98522 -81.627571 
L 95.327008 -81.310927 
L 94.668796 -80.725705 
L 94.010584 -80.139208 
L 93.352372 -79.551719 
L 92.69416 -78.963523 
L 92.035948 -78.374903 
z
"/>
    </defs>
    <g clip-path="url(#p230314d878)">
     <use xlink:href="#mc23933988d" x="0" y="189.175361" style="fill: #be03fd; fill-opacity: 0.2"/>
    </g>
   </g>
   <g id="matplotlib.axis_11">
    <g id="xtick_16">
     <g id="line2d_33">
      <g>
       <use xlink:href="#m4cca850156" x="92.035948" y="131.392193" style="stroke: #000000; stroke-width: 0.6"/>
      </g>
     </g>
    </g>
    <g id="xtick_17">
     <g id="line2d_34">
      <g>
       <use xlink:href="#m4cca850156" x="118.364429" y="131.392193" style="stroke: #000000; stroke-width: 0.6"/>
      </g>
     </g>
    </g>
    <g id="xtick_18">
     <g id="line2d_35">
      <g>
       <use xlink:href="#m4cca850156" x="144.69291" y="131.392193" style="stroke: #000000; stroke-width: 0.6"/>
      </g>
     </g>
    </g>
   </g>
   <g id="matplotlib.axis_12">
    <g id="ytick_13">
     <g id="line2d_36">
      <g>
       <use xlink:href="#mb1b2d8f53a" x="144.69291" y="128.0093" style="stroke: #000000; stroke-width: 0.6"/>
      </g>
     </g>
     <g id="text_21">
      <!-- $-0.5$ -->
      <g transform="translate(148.19291 130.776671)scale(0.08 -0.08)">
       <use xlink:href="#LMMathSymbols10-Regular-0" transform="scale(0.996264)"/>
       <use xlink:href="#LMSans17-Regular-30" transform="translate(77.487468 0)scale(0.996264)"/>
       <use xlink:href="#LMSans17-Regular-2e" transform="translate(124.331471 0)scale(0.996264)"/>
       <use xlink:href="#LMSans17-Regular-35" transform="translate(150.356634 0)scale(0.996264)"/>
      </g>
     </g>
    </g>
    <g id="ytick_14">
     <g id="line2d_37">
      <g>
       <use xlink:href="#mb1b2d8f53a" x="144.69291" y="111.094838" style="stroke: #000000; stroke-width: 0.6"/>
      </g>
     </g>
    </g>
    <g id="ytick_15">
     <g id="line2d_38">
      <g>
       <use xlink:href="#mb1b2d8f53a" x="144.69291" y="94.180376" style="stroke: #000000; stroke-width: 0.6"/>
      </g>
     </g>
     <g id="text_22">
      <!-- $0.5$ -->
      <g transform="translate(148.19291 96.947747)scale(0.08 -0.08)">
       <use xlink:href="#LMSans17-Regular-30" transform="scale(0.996264)"/>
       <use xlink:href="#LMSans17-Regular-2e" transform="translate(46.844004 0)scale(0.996264)"/>
       <use xlink:href="#LMSans17-Regular-35" transform="translate(72.869166 0)scale(0.996264)"/>
      </g>
     </g>
    </g>
    <g id="text_23">
     <!-- $I / I_0$ -->
     <g transform="translate(156.577584 117.467494)rotate(-90)scale(0.08 -0.08)">
      <use xlink:href="#LMSans17-Oblique-49" transform="scale(0.996264)"/>
      <use xlink:href="#LMMathItalic12-Regular-3d" transform="translate(34.615492 0)scale(0.996264)"/>
      <use xlink:href="#LMSans17-Oblique-49" transform="translate(83.390411 0)scale(0.996264)"/>
      <use xlink:href="#LMSans17-Regular-30" transform="translate(109.173394 -14.943915)scale(0.697382)"/>
     </g>
    </g>
   </g>
   <g id="line2d_39">
    <path d="M 92.035948 110.800458 
L 92.69416 110.211837 
L 93.352372 109.623641 
L 94.010584 109.036153 
L 94.668796 108.449655 
L 95.327008 107.864434 
L 95.98522 107.547789 
L 96.643433 107.590344 
L 97.301645 109.595924 
L 97.959857 113.630995 
L 98.618069 116.020222 
L 99.276281 116.935047 
L 99.934493 117.054593 
L 100.592705 117.125192 
L 101.250917 117.1516 
L 101.909129 117.138235 
L 102.567341 117.089134 
L 103.225553 117.007946 
L 103.883765 116.897944 
L 104.541977 116.762054 
L 105.200189 116.602884 
L 105.858401 116.422764 
L 106.516613 116.223774 
L 107.174825 116.00778 
L 107.833037 115.776459 
L 108.491249 115.531325 
L 109.149461 115.273756 
L 109.807673 115.005005 
L 110.465885 114.726226 
L 111.124097 114.438482 
L 111.782309 114.142762 
L 112.440521 113.839992 
L 113.098733 113.531039 
L 113.756945 113.21673 
L 114.415157 112.897849 
L 115.073369 112.575149 
L 115.731581 112.249359 
L 116.389793 111.921185 
L 117.048005 111.59132 
L 117.706217 111.260444 
L 118.364429 110.929232 
L 119.022641 110.598357 
L 119.680853 110.268492 
L 120.339065 109.940318 
L 120.997277 109.614528 
L 121.655489 109.291828 
L 122.313701 108.972947 
L 122.971913 108.658637 
L 123.630125 108.349685 
L 124.288338 108.046914 
L 124.94655 107.751195 
L 125.604762 107.463451 
L 126.262974 107.184672 
L 126.921186 106.915921 
L 127.579398 106.658351 
L 128.23761 106.413218 
L 128.895822 106.181897 
L 129.554034 105.965902 
L 130.212246 105.766913 
L 130.870458 105.586792 
L 131.52867 105.427623 
L 132.186882 105.291732 
L 132.845094 105.181731 
L 133.503306 105.100543 
L 134.161518 105.051442 
L 134.81973 105.038077 
L 135.477942 105.064484 
L 136.136154 105.135084 
L 136.794366 105.25463 
L 137.452578 106.169454 
L 138.11079 108.558682 
L 138.769002 112.593753 
L 139.427214 114.599332 
L 140.085426 114.641887 
L 140.743638 114.325243 
L 141.40185 113.740021 
L 142.060062 113.153524 
L 142.718274 112.566035 
L 143.376486 111.977839 
L 144.034698 111.389219 
" clip-path="url(#p230314d878)" style="fill: none; stroke: #be03fd; stroke-width: 0.5; stroke-linecap: square"/>
   </g>
   <g id="patch_33">
    <path d="M 92.035948 131.392193 
L 92.035948 90.797484 
" style="fill: none; stroke: #000000; stroke-width: 0.4; stroke-linejoin: miter; stroke-linecap: square"/>
   </g>
   <g id="patch_34">
    <path d="M 144.69291 131.392193 
L 144.69291 90.797484 
" style="fill: none; stroke: #000000; stroke-width: 0.4; stroke-linejoin: miter; stroke-linecap: square"/>
   </g>
   <g id="patch_35">
    <path d="M 92.035948 131.392193 
L 144.69291 131.392193 
" style="fill: none; stroke: #000000; stroke-width: 0.4; stroke-linejoin: miter; stroke-linecap: square"/>
   </g>
   <g id="patch_36">
    <path d="M 92.035948 90.797484 
L 144.69291 90.797484 
" style="fill: none; stroke: #000000; stroke-width: 0.4; stroke-linejoin: miter; stroke-linecap: square"/>
   </g>
   <g id="text_24">
    <g id="patch_37">
     <path d="M 92.015657 101.105698 
L 102.550715 101.105698 
L 102.550715 90.821272 
L 92.015657 90.821272 
z
" style="fill-opacity: 0.1"/>
    </g>
    <!--  $\pi'$ -->
    <g transform="translate(93.615657 97.956013)scale(0.08 -0.08)">
     <use xlink:href="#LMMathItalic12-Regular-19" transform="scale(0.996264)"/>
     <use xlink:href="#LMMathSymbols10-Regular-30" transform="translate(58.910601 36.153639)scale(0.697382)"/>
    </g>
   </g>
  </g>
  <g id="axes_7">
   <g id="patch_38">
    <path d="M 32.713438 174.990935 
L 85.3704 174.990935 
L 85.3704 134.396226 
L 32.713438 134.396226 
z
" style="fill: #ffffff"/>
   </g>
   <g id="matplotlib.axis_13">
    <g id="xtick_19">
     <g id="line2d_40">
      <g>
       <use xlink:href="#m4cca850156" x="32.713438" y="174.990935" style="stroke: #000000; stroke-width: 0.6"/>
      </g>
     </g>
     <g id="text_25">
      <!-- $0$ -->
      <g transform="translate(30.596377 184.025676)scale(0.08 -0.08)">
       <use xlink:href="#LMSans17-Regular-30" transform="scale(0.996264)"/>
      </g>
     </g>
    </g>
    <g id="xtick_20">
     <g id="line2d_41">
      <g>
       <use xlink:href="#m4cca850156" x="59.041919" y="174.990935" style="stroke: #000000; stroke-width: 0.6"/>
      </g>
     </g>
    </g>
    <g id="xtick_21">
     <g id="line2d_42">
      <g>
       <use xlink:href="#m4cca850156" x="85.3704" y="174.990935" style="stroke: #000000; stroke-width: 0.6"/>
      </g>
     </g>
     <g id="text_26">
      <!-- $2\pi$ -->
      <g transform="translate(80.821913 184.025676)scale(0.08 -0.08)">
       <use xlink:href="#LMSans17-Regular-32" transform="scale(0.996264)"/>
       <use xlink:href="#LMMathItalic12-Regular-19" transform="translate(46.844004 0)scale(0.996264)"/>
      </g>
     </g>
    </g>
    <g id="text_27">
     <!-- $\phi$ -->
     <g transform="translate(56.52493 183.110162)scale(0.08 -0.08)">
      <defs>
       <path id="LMMathItalic12-Regular-1e" d="M 3571 1673 
C 3571 2313 3085 2771 2374 2816 
L 2752 4358 
C 2752 4416 2707 4416 2688 4416 
C 2630 4416 2624 4403 2598 4294 
L 2253 2924 
C 2234 2841 2221 2828 2221 2828 
C 2214 2816 2157 2809 2157 2809 
C 1107 2720 301 1863 301 1071 
C 301 387 832 -31 1498 -69 
L 1350 -662 
C 1261 -997 1210 -1205 1210 -1230 
C 1210 -1230 1210 -1280 1274 -1280 
C 1293 -1280 1318 -1280 1331 -1255 
C 1344 -1243 1382 -1091 1408 -1009 
L 1645 -69 
C 2739 -12 3571 875 3571 1673 
z
M 3181 1806 
C 3181 1090 2675 140 1677 64 
L 2336 2688 
C 2758 2662 3181 2428 3181 1806 
z
M 2195 2681 
L 1530 57 
C 1216 76 691 241 691 938 
C 691 1737 1274 2624 2195 2681 
z
" transform="scale(0.015625)"/>
      </defs>
      <use xlink:href="#LMMathItalic12-Regular-1e" transform="scale(0.996264)"/>
     </g>
    </g>
   </g>
   <g id="matplotlib.axis_14">
    <g id="ytick_16">
     <g id="line2d_43">
      <g>
       <use xlink:href="#mad2a4b6db3" x="32.713438" y="163.481829" style="stroke: #000000; stroke-width: 0.6"/>
      </g>
     </g>
     <g id="text_28">
      <!-- -0.2 -->
      <g transform="translate(15.570112 166.249199)scale(0.08 -0.08)">
       <use xlink:href="#LMSans17-Regular-2d" transform="scale(0.996264)"/>
       <use xlink:href="#LMSans17-Regular-30" transform="translate(31.229402 0)scale(0.996264)"/>
       <use xlink:href="#LMSans17-Regular-2e" transform="translate(78.073405 0)scale(0.996264)"/>
       <use xlink:href="#LMSans17-Regular-32" transform="translate(104.098568 0)scale(0.996264)"/>
      </g>
     </g>
    </g>
    <g id="ytick_17">
     <g id="line2d_44">
      <g>
       <use xlink:href="#mad2a4b6db3" x="32.713438" y="143.095092" style="stroke: #000000; stroke-width: 0.6"/>
      </g>
     </g>
     <g id="text_29">
      <!-- 0.0 -->
      <g transform="translate(18.392855 145.862462)scale(0.08 -0.08)">
       <use xlink:href="#LMSans17-Regular-30" transform="scale(0.996264)"/>
       <use xlink:href="#LMSans17-Regular-2e" transform="translate(46.844004 0)scale(0.996264)"/>
       <use xlink:href="#LMSans17-Regular-30" transform="translate(72.869166 0)scale(0.996264)"/>
      </g>
     </g>
    </g>
    <g id="text_30">
     <!-- $F / \Delta$ -->
     <g transform="translate(9.577584 163.279129)rotate(-90)scale(0.08 -0.08)">
      <use xlink:href="#LMSans17-Oblique-46" transform="scale(0.996264)"/>
      <use xlink:href="#LMMathItalic12-Regular-3d" transform="translate(66.687073 0)scale(0.996264)"/>
      <use xlink:href="#CMSS17-1" transform="translate(115.461991 0)scale(0.996264)"/>
     </g>
    </g>
   </g>
   <g id="line2d_45">
    <path d="M 32.713438 143.095092 
L 33.37165 143.169179 
L 34.029862 143.38961 
L 34.688074 143.751049 
L 35.346286 144.245114 
L 36.004498 144.861021 
L 36.66271 145.586341 
L 37.320922 146.407714 
L 37.979134 147.311494 
L 38.637346 148.284242 
L 39.295558 149.313084 
L 39.95377 150.38594 
L 40.611982 151.491642 
L 41.270194 152.619976 
L 41.928406 153.761676 
L 42.586618 154.908377 
L 43.244831 156.052546 
L 43.903043 157.18742 
L 44.561255 158.306923 
L 45.219467 159.4056 
L 45.877679 160.478549 
L 46.535891 161.521363 
L 47.194103 162.530076 
L 47.852315 163.501115 
L 48.510527 164.431261 
L 49.168739 165.317611 
L 49.826951 166.157552 
L 50.485163 166.948728 
L 51.143375 167.689023 
L 51.801587 168.376538 
L 52.459799 169.009575 
L 53.118011 169.586625 
L 53.776223 170.106353 
L 54.434435 170.567588 
L 55.092647 170.969317 
L 55.750859 171.310673 
L 56.409071 171.590934 
L 57.067283 171.809514 
L 57.725495 171.965962 
L 58.383707 172.059959 
L 59.041919 172.091313 
L 59.700131 172.059959 
L 60.358343 171.965962 
L 61.016555 171.809514 
L 61.674767 171.590934 
L 62.332979 171.310673 
L 62.991191 170.969317 
L 63.649403 170.567588 
L 64.307615 170.106353 
L 64.965827 169.586625 
L 65.624039 169.009575 
L 66.282251 168.376538 
L 66.940463 167.689023 
L 67.598675 166.948728 
L 68.256887 166.157552 
L 68.915099 165.317611 
L 69.573311 164.431261 
L 70.231523 163.501115 
L 70.889736 162.530076 
L 71.547948 161.521363 
L 72.20616 160.478549 
L 72.864372 159.4056 
L 73.522584 158.306923 
L 74.180796 157.18742 
L 74.839008 156.052546 
L 75.49722 154.908377 
L 76.155432 153.761676 
L 76.813644 152.619976 
L 77.471856 151.491642 
L 78.130068 150.38594 
L 78.78828 149.313084 
L 79.446492 148.284242 
L 80.104704 147.311494 
L 80.762916 146.407714 
L 81.421128 145.586341 
L 82.07934 144.861021 
L 82.737552 144.245114 
L 83.395764 143.751049 
L 84.053976 143.38961 
L 84.712188 143.169179 
" clip-path="url(#p54714d492b)" style="fill: none; stroke: #7b002c; stroke-width: 0.5; stroke-linecap: square"/>
   </g>
   <g id="patch_39">
    <path d="M 32.713438 174.990935 
L 32.713438 134.396226 
" style="fill: none; stroke: #000000; stroke-width: 0.4; stroke-linejoin: miter; stroke-linecap: square"/>
   </g>
   <g id="patch_40">
    <path d="M 85.3704 174.990935 
L 85.3704 134.396226 
" style="fill: none; stroke: #000000; stroke-width: 0.4; stroke-linejoin: miter; stroke-linecap: square"/>
   </g>
   <g id="patch_41">
    <path d="M 32.713438 174.990935 
L 85.3704 174.990935 
" style="fill: none; stroke: #000000; stroke-width: 0.4; stroke-linejoin: miter; stroke-linecap: square"/>
   </g>
   <g id="patch_42">
    <path d="M 32.713438 134.396226 
L 85.3704 134.396226 
" style="fill: none; stroke: #000000; stroke-width: 0.4; stroke-linejoin: miter; stroke-linecap: square"/>
   </g>
   <g id="text_31">
    <g id="patch_43">
     <path d="M 32.693147 144.70444 
L 40.756 144.70444 
L 40.756 134.420014 
L 32.693147 134.420014 
z
" style="fill-opacity: 0.1"/>
    </g>
    <!--  $\pi$ -->
    <g transform="translate(34.293147 141.554755)scale(0.08 -0.08)">
     <use xlink:href="#LMMathItalic12-Regular-19" transform="scale(0.996264)"/>
    </g>
   </g>
  </g>
  <g id="axes_8">
   <g id="patch_44">
    <path d="M 92.035948 174.990935 
L 144.69291 174.990935 
L 144.69291 134.396226 
L 92.035948 134.396226 
z
" style="fill: #ffffff"/>
   </g>
   <g id="PolyCollection_4">
    <defs>
     <path id="m9f49ca50ba" d="M 92.035948 -34.090457 
L 92.035948 -34.48178 
L 92.69416 -34.48178 
L 93.352372 -34.48178 
L 94.010584 -34.48178 
L 94.668796 -34.48178 
L 95.327008 -34.48178 
L 95.98522 -34.48178 
L 96.643433 -34.48178 
L 97.301645 -34.48178 
L 97.959857 -34.48178 
L 98.618069 -34.48178 
L 99.276281 -34.48178 
L 99.934493 -34.48178 
L 100.592705 -34.48178 
L 101.250917 -34.48178 
L 101.909129 -34.48178 
L 102.567341 -34.48178 
L 103.225553 -34.48178 
L 103.883765 -34.48178 
L 104.541977 -34.48178 
L 105.200189 -34.48178 
L 105.858401 -34.48178 
L 106.516613 -34.48178 
L 107.174825 -34.48178 
L 107.833037 -34.48178 
L 108.491249 -34.48178 
L 109.149461 -34.48178 
L 109.807673 -34.48178 
L 110.465885 -34.48178 
L 111.124097 -34.48178 
L 111.782309 -34.48178 
L 112.440521 -34.48178 
L 113.098733 -34.48178 
L 113.756945 -34.48178 
L 114.415157 -34.48178 
L 115.073369 -34.48178 
L 115.731581 -34.48178 
L 116.389793 -34.48178 
L 117.048005 -34.48178 
L 117.706217 -34.48178 
L 118.364429 -34.48178 
L 119.022641 -34.48178 
L 119.680853 -34.48178 
L 120.339065 -34.48178 
L 120.997277 -34.48178 
L 121.655489 -34.48178 
L 122.313701 -34.48178 
L 122.971913 -34.48178 
L 123.630125 -34.48178 
L 124.288338 -34.48178 
L 124.94655 -34.48178 
L 125.604762 -34.48178 
L 126.262974 -34.48178 
L 126.921186 -34.48178 
L 127.579398 -34.48178 
L 128.23761 -34.48178 
L 128.895822 -34.48178 
L 129.554034 -34.48178 
L 130.212246 -34.48178 
L 130.870458 -34.48178 
L 131.52867 -34.48178 
L 132.186882 -34.48178 
L 132.845094 -34.48178 
L 133.503306 -34.48178 
L 134.161518 -34.48178 
L 134.81973 -34.48178 
L 135.477942 -34.48178 
L 136.136154 -34.48178 
L 136.794366 -34.48178 
L 137.452578 -34.48178 
L 138.11079 -34.48178 
L 138.769002 -34.48178 
L 139.427214 -34.48178 
L 140.085426 -34.48178 
L 140.743638 -34.48178 
L 141.40185 -34.48178 
L 142.060062 -34.48178 
L 142.718274 -34.48178 
L 143.376486 -34.48178 
L 144.034698 -34.48178 
L 144.034698 -34.873103 
L 144.034698 -34.873103 
L 143.376486 -35.646073 
L 142.718274 -36.39087 
L 142.060062 -37.09138 
L 141.40185 -37.734948 
L 140.743638 -38.312847 
L 140.085426 -38.820196 
L 139.427214 -39.25546 
L 138.769002 -39.619743 
L 138.11079 -39.91603 
L 137.452578 -40.148504 
L 136.794366 -40.321989 
L 136.136154 -40.441535 
L 135.477942 -40.512134 
L 134.81973 -40.538542 
L 134.161518 -40.525176 
L 133.503306 -40.476076 
L 132.845094 -40.394888 
L 132.186882 -40.284886 
L 131.52867 -40.148996 
L 130.870458 -39.989826 
L 130.212246 -39.809706 
L 129.554034 -39.610716 
L 128.895822 -39.394722 
L 128.23761 -39.163401 
L 127.579398 -38.918267 
L 126.921186 -38.660698 
L 126.262974 -38.391947 
L 125.604762 -38.113168 
L 124.94655 -37.825424 
L 124.288338 -37.529704 
L 123.630125 -37.226934 
L 122.971913 -36.917981 
L 122.313701 -36.603672 
L 121.655489 -36.28479 
L 120.997277 -35.962091 
L 120.339065 -35.636301 
L 119.680853 -35.308127 
L 119.022641 -34.978262 
L 118.364429 -34.647386 
L 117.706217 -34.316174 
L 117.048005 -33.985299 
L 116.389793 -33.655433 
L 115.731581 -33.32726 
L 115.073369 -33.00147 
L 114.415157 -32.67877 
L 113.756945 -32.359889 
L 113.098733 -32.045579 
L 112.440521 -31.736627 
L 111.782309 -31.433856 
L 111.124097 -31.138137 
L 110.465885 -30.850393 
L 109.807673 -30.571614 
L 109.149461 -30.302863 
L 108.491249 -30.045293 
L 107.833037 -29.80016 
L 107.174825 -29.568839 
L 106.516613 -29.352844 
L 105.858401 -29.153855 
L 105.200189 -28.973734 
L 104.541977 -28.814565 
L 103.883765 -28.678674 
L 103.225553 -28.568672 
L 102.567341 -28.487485 
L 101.909129 -28.438384 
L 101.250917 -28.425019 
L 100.592705 -28.451426 
L 99.934493 -28.522026 
L 99.276281 -28.641572 
L 98.618069 -28.815057 
L 97.959857 -29.047531 
L 97.301645 -29.343818 
L 96.643433 -29.708101 
L 95.98522 -30.143365 
L 95.327008 -30.650713 
L 94.668796 -31.228613 
L 94.010584 -31.872181 
L 93.352372 -32.572691 
L 92.69416 -33.317487 
L 92.035948 -34.090457 
z
"/>
    </defs>
    <g clip-path="url(#p9220f69853)">
     <use xlink:href="#m9f49ca50ba" x="0" y="189.175361" style="fill: #7b002c; fill-opacity: 0.2"/>
    </g>
   </g>
   <g id="matplotlib.axis_15">
    <g id="xtick_22">
     <g id="line2d_46">
      <g>
       <use xlink:href="#m4cca850156" x="92.035948" y="174.990935" style="stroke: #000000; stroke-width: 0.6"/>
      </g>
     </g>
     <g id="text_32">
      <!-- $0$ -->
      <g transform="translate(89.918887 184.025676)scale(0.08 -0.08)">
       <use xlink:href="#LMSans17-Regular-30" transform="scale(0.996264)"/>
      </g>
     </g>
    </g>
    <g id="xtick_23">
     <g id="line2d_47">
      <g>
       <use xlink:href="#m4cca850156" x="118.364429" y="174.990935" style="stroke: #000000; stroke-width: 0.6"/>
      </g>
     </g>
    </g>
    <g id="xtick_24">
     <g id="line2d_48">
      <g>
       <use xlink:href="#m4cca850156" x="144.69291" y="174.990935" style="stroke: #000000; stroke-width: 0.6"/>
      </g>
     </g>
     <g id="text_33">
      <!-- $2\pi$ -->
      <g transform="translate(140.144423 184.025676)scale(0.08 -0.08)">
       <use xlink:href="#LMSans17-Regular-32" transform="scale(0.996264)"/>
       <use xlink:href="#LMMathItalic12-Regular-19" transform="translate(46.844004 0)scale(0.996264)"/>
      </g>
     </g>
    </g>
    <g id="text_34">
     <!-- $\phi$ -->
     <g transform="translate(115.84744 183.110162)scale(0.08 -0.08)">
      <use xlink:href="#LMMathItalic12-Regular-1e" transform="scale(0.996264)"/>
     </g>
    </g>
   </g>
   <g id="matplotlib.axis_16">
    <g id="ytick_18">
     <g id="line2d_49">
      <g>
       <use xlink:href="#mb1b2d8f53a" x="144.69291" y="171.608042" style="stroke: #000000; stroke-width: 0.6"/>
      </g>
     </g>
     <g id="text_35">
      <!-- $-0.5$ -->
      <g transform="translate(148.19291 174.375413)scale(0.08 -0.08)">
       <use xlink:href="#LMMathSymbols10-Regular-0" transform="scale(0.996264)"/>
       <use xlink:href="#LMSans17-Regular-30" transform="translate(77.487468 0)scale(0.996264)"/>
       <use xlink:href="#LMSans17-Regular-2e" transform="translate(124.331471 0)scale(0.996264)"/>
       <use xlink:href="#LMSans17-Regular-35" transform="translate(150.356634 0)scale(0.996264)"/>
      </g>
     </g>
    </g>
    <g id="ytick_19">
     <g id="line2d_50">
      <g>
       <use xlink:href="#mb1b2d8f53a" x="144.69291" y="154.69358" style="stroke: #000000; stroke-width: 0.6"/>
      </g>
     </g>
    </g>
    <g id="ytick_20">
     <g id="line2d_51">
      <g>
       <use xlink:href="#mb1b2d8f53a" x="144.69291" y="137.779118" style="stroke: #000000; stroke-width: 0.6"/>
      </g>
     </g>
     <g id="text_36">
      <!-- $0.5$ -->
      <g transform="translate(148.19291 140.546489)scale(0.08 -0.08)">
       <use xlink:href="#LMSans17-Regular-30" transform="scale(0.996264)"/>
       <use xlink:href="#LMSans17-Regular-2e" transform="translate(46.844004 0)scale(0.996264)"/>
       <use xlink:href="#LMSans17-Regular-35" transform="translate(72.869166 0)scale(0.996264)"/>
      </g>
     </g>
    </g>
    <g id="text_37">
     <!-- $I / I_0$ -->
     <g transform="translate(156.577584 161.066236)rotate(-90)scale(0.08 -0.08)">
      <use xlink:href="#LMSans17-Oblique-49" transform="scale(0.996264)"/>
      <use xlink:href="#LMMathItalic12-Regular-3d" transform="translate(34.615492 0)scale(0.996264)"/>
      <use xlink:href="#LMSans17-Oblique-49" transform="translate(83.390411 0)scale(0.996264)"/>
      <use xlink:href="#LMSans17-Regular-30" transform="translate(109.173394 -14.943915)scale(0.697382)"/>
     </g>
    </g>
   </g>
   <g id="line2d_52">
    <path d="M 92.035948 155.084903 
L 92.69416 155.857873 
L 93.352372 156.60267 
L 94.010584 157.30318 
L 94.668796 157.946748 
L 95.327008 158.524647 
L 95.98522 159.031996 
L 96.643433 159.46726 
L 97.301645 159.831543 
L 97.959857 160.12783 
L 98.618069 160.360304 
L 99.276281 160.533789 
L 99.934493 160.653335 
L 100.592705 160.723934 
L 101.250917 160.750342 
L 101.909129 160.736976 
L 102.567341 160.687876 
L 103.225553 160.606688 
L 103.883765 160.496686 
L 104.541977 160.360796 
L 105.200189 160.201626 
L 105.858401 160.021506 
L 106.516613 159.822516 
L 107.174825 159.606522 
L 107.833037 159.375201 
L 108.491249 159.130067 
L 109.149461 158.872498 
L 109.807673 158.603747 
L 110.465885 158.324968 
L 111.124097 158.037224 
L 111.782309 157.741504 
L 112.440521 157.438734 
L 113.098733 157.129781 
L 113.756945 156.815472 
L 114.415157 156.49659 
L 115.073369 156.173891 
L 115.731581 155.848101 
L 116.389793 155.519927 
L 117.048005 155.190062 
L 117.706217 154.859186 
L 118.364429 154.527974 
L 119.022641 154.197099 
L 119.680853 153.867233 
L 120.339065 153.53906 
L 120.997277 153.21327 
L 121.655489 152.89057 
L 122.313701 152.571689 
L 122.971913 152.257379 
L 123.630125 151.948427 
L 124.288338 151.645656 
L 124.94655 151.349937 
L 125.604762 151.062193 
L 126.262974 150.783414 
L 126.921186 150.514663 
L 127.579398 150.257093 
L 128.23761 150.01196 
L 128.895822 149.780639 
L 129.554034 149.564644 
L 130.212246 149.365655 
L 130.870458 149.185534 
L 131.52867 149.026365 
L 132.186882 148.890474 
L 132.845094 148.780472 
L 133.503306 148.699285 
L 134.161518 148.650184 
L 134.81973 148.636819 
L 135.477942 148.663226 
L 136.136154 148.733826 
L 136.794366 148.853372 
L 137.452578 149.026857 
L 138.11079 149.259331 
L 138.769002 149.555618 
L 139.427214 149.919901 
L 140.085426 150.355165 
L 140.743638 150.862513 
L 141.40185 151.440413 
L 142.060062 152.083981 
L 142.718274 152.784491 
L 143.376486 153.529287 
L 144.034698 154.302257 
" clip-path="url(#p9220f69853)" style="fill: none; stroke: #7b002c; stroke-width: 0.5; stroke-linecap: square"/>
   </g>
   <g id="patch_45">
    <path d="M 92.035948 174.990935 
L 92.035948 134.396226 
" style="fill: none; stroke: #000000; stroke-width: 0.4; stroke-linejoin: miter; stroke-linecap: square"/>
   </g>
   <g id="patch_46">
    <path d="M 144.69291 174.990935 
L 144.69291 134.396226 
" style="fill: none; stroke: #000000; stroke-width: 0.4; stroke-linejoin: miter; stroke-linecap: square"/>
   </g>
   <g id="patch_47">
    <path d="M 92.035948 174.990935 
L 144.69291 174.990935 
" style="fill: none; stroke: #000000; stroke-width: 0.4; stroke-linejoin: miter; stroke-linecap: square"/>
   </g>
   <g id="patch_48">
    <path d="M 92.035948 134.396226 
L 144.69291 134.396226 
" style="fill: none; stroke: #000000; stroke-width: 0.4; stroke-linejoin: miter; stroke-linecap: square"/>
   </g>
   <g id="text_38">
    <g id="patch_49">
     <path d="M 92.015657 144.70444 
L 100.07851 144.70444 
L 100.07851 134.420014 
L 92.015657 134.420014 
z
" style="fill-opacity: 0.1"/>
    </g>
    <!--  $\pi$ -->
    <g transform="translate(93.615657 141.554755)scale(0.08 -0.08)">
     <use xlink:href="#LMMathItalic12-Regular-19" transform="scale(0.996264)"/>
    </g>
   </g>
  </g>
 </g>
 <defs>
  <clipPath id="p24b58337ef">
   <rect x="32.713438" y="3.6" width="52.656962" height="40.594709"/>
  </clipPath>
  <clipPath id="p406bb78229">
   <rect x="92.035948" y="3.6" width="52.656962" height="40.594709"/>
  </clipPath>
  <clipPath id="pbd43171ff8">
   <rect x="32.713438" y="47.198742" width="52.656962" height="40.594709"/>
  </clipPath>
  <clipPath id="pccbdecbea4">
   <rect x="92.035948" y="47.198742" width="52.656962" height="40.594709"/>
  </clipPath>
  <clipPath id="pa147662fe3">
   <rect x="32.713438" y="90.797484" width="52.656962" height="40.594709"/>
  </clipPath>
  <clipPath id="p230314d878">
   <rect x="92.035948" y="90.797484" width="52.656962" height="40.594709"/>
  </clipPath>
  <clipPath id="p54714d492b">
   <rect x="32.713438" y="134.396226" width="52.656962" height="40.594709"/>
  </clipPath>
  <clipPath id="p9220f69853">
   <rect x="92.035948" y="134.396226" width="52.656962" height="40.594709"/>
  </clipPath>
 </defs>
</svg>
